{
	"asset":{
		"generator":"Khronos glTF Blender I/O v5.1.20",
		"version":"2.0"
	},
	"extensionsUsed":[
		"KHR_materials_unlit"
	],
	"scene":0,
	"scenes":[
		{
			"name":"Scene",
			"nodes":[
				1
			]
		}
	],
	"nodes":[
		{
			"name":"Fake Light (d88c97c8) Empty",
			"rotation":[
				0.764097273349762,
				-0.12374462932348251,
				-0.6251528859138489,
				0.10013324022293091
			],
			"translation":[
				-0.1392296999692917,
				2.6046290397644043,
				-1.1200295686721802
			]
		},
		{
			"children":[
				0
			],
			"mesh":0,
			"name":"Cube.003"
		}
	],
	"materials":[
		{
			"alphaMode":"BLEND",
			"extensions":{
				"KHR_materials_unlit":{}
			},
			"name":"New Group Material.1001",
			"pbrMetallicRoughness":{
				"baseColorTexture":{
					"index":0
				},
				"metallicFactor":0,
				"roughnessFactor":0.9
			}
		}
	],
	"meshes":[
		{
			"name":"Cube.003",
			"primitives":[
				{
					"attributes":{
						"POSITION":0,
						"NORMAL":1,
						"TEXCOORD_0":2
					},
					"indices":3,
					"material":0
				}
			]
		}
	],
	"textures":[
		{
			"sampler":0,
			"source":0
		}
	],
	"images":[
		{
			"mimeType":"image/png",
			"name":"Image.1001",
			"uri":"ff/Image.1001.png"
		}
	],
	"accessors":[
		{
			"bufferView":0,
			"componentType":5126,
			"count":98304,
			"max":[
				0.8276132941246033,
				0.8190685510635376,
				0.7370100021362305
			],
			"min":[
				-0.8218392133712769,
				-0.5452940464019775,
				-0.864348292350769
			],
			"type":"VEC3"
		},
		{
			"bufferView":1,
			"componentType":5126,
			"count":98304,
			"type":"VEC3"
		},
		{
			"bufferView":2,
			"componentType":5126,
			"count":98304,
			"type":"VEC2"
		},
		{
			"bufferView":3,
			"componentType":5125,
			"count":147456,
			"type":"SCALAR"
		}
	],
	"bufferViews":[
		{
			"buffer":0,
			"byteLength":1179648,
			"byteOffset":0,
			"target":34962
		},
		{
			"buffer":0,
			"byteLength":1179648,
			"byteOffset":1179648,
			"target":34962
		},
		{
			"buffer":0,
			"byteLength":786432,
			"byteOffset":2359296,
			"target":34962
		},
		{
			"buffer":0,
			"byteLength":589824,
			"byteOffset":3145728,
			"target":34963
		}
	],
	"samplers":[
		{
			"magFilter":9728,
			"minFilter":9984
		}
	],
	"buffers":[
		{
			"byteLength":3735552,
			"uri":"bbh.bin"
		}
	]
}
