{
	"asset":{
		"generator":"Khronos glTF Blender I/O v5.1.20",
		"version":"2.0"
	},
	"scene":0,
	"scenes":[
		{
			"name":"Scene",
			"nodes":[
				0,
				1
			]
		}
	],
	"nodes":[
		{
			"mesh":0,
			"name":"Plane",
			"scale":[
				2,
				1,
				2
			]
		},
		{
			"mesh":1,
			"name":"Plane.001",
			"scale":[
				2,
				1,
				2
			]
		}
	],
	"materials":[
		{
			"doubleSided":true,
			"name":"Material.001",
			"pbrMetallicRoughness":{
				"metallicFactor":0,
				"roughnessFactor":0.8309091329574585
			}
		},
		{
			"doubleSided":true,
			"name":"Material.003",
			"pbrMetallicRoughness":{
				"metallicFactor":0,
				"roughnessFactor":0.9642857313156128
			}
		}
	],
	"meshes":[
		{
			"name":"Plane",
			"primitives":[
				{
					"attributes":{
						"POSITION":0,
						"NORMAL":1,
						"TEXCOORD_0":2
					},
					"indices":3,
					"material":0
				}
			]
		},
		{
			"name":"Plane.001",
			"primitives":[
				{
					"attributes":{
						"POSITION":4,
						"NORMAL":5,
						"TEXCOORD_0":6
					},
					"indices":7,
					"material":1
				}
			]
		}
	],
	"accessors":[
		{
			"bufferView":0,
			"componentType":5126,
			"count":2704,
			"max":[
				1,
				-0.40514445304870605,
				1
			],
			"min":[
				-1,
				-0.4966137409210205,
				-1
			],
			"type":"VEC3"
		},
		{
			"bufferView":1,
			"componentType":5126,
			"count":2704,
			"type":"VEC3"
		},
		{
			"bufferView":2,
			"componentType":5126,
			"count":2704,
			"type":"VEC2"
		},
		{
			"bufferView":3,
			"componentType":5123,
			"count":15606,
			"type":"SCALAR"
		},
		{
			"bufferView":4,
			"componentType":5126,
			"count":4,
			"max":[
				1,
				0,
				1
			],
			"min":[
				-1,
				0,
				-1
			],
			"type":"VEC3"
		},
		{
			"bufferView":5,
			"componentType":5126,
			"count":4,
			"type":"VEC3"
		},
		{
			"bufferView":6,
			"componentType":5126,
			"count":4,
			"type":"VEC2"
		},
		{
			"bufferView":7,
			"componentType":5123,
			"count":6,
			"type":"SCALAR"
		}
	],
	"bufferViews":[
		{
			"buffer":0,
			"byteLength":32448,
			"byteOffset":0,
			"target":34962
		},
		{
			"buffer":0,
			"byteLength":32448,
			"byteOffset":32448,
			"target":34962
		},
		{
			"buffer":0,
			"byteLength":21632,
			"byteOffset":64896,
			"target":34962
		},
		{
			"buffer":0,
			"byteLength":31212,
			"byteOffset":86528,
			"target":34963
		},
		{
			"buffer":0,
			"byteLength":48,
			"byteOffset":117740,
			"target":34962
		},
		{
			"buffer":0,
			"byteLength":48,
			"byteOffset":117788,
			"target":34962
		},
		{
			"buffer":0,
			"byteLength":32,
			"byteOffset":117836,
			"target":34962
		},
		{
			"buffer":0,
			"byteLength":12,
			"byteOffset":117868,
			"target":34963
		}
	],
	"buffers":[
		{
			"byteLength":117880,
			"uri":"chat.bin"
		}
	]
}
