{
	"asset":{
		"generator":"Khronos glTF Blender I/O v5.1.20",
		"version":"2.0"
	},
	"scene":0,
	"scenes":[
		{
			"name":"Scene",
			"nodes":[
				0
			]
		}
	],
	"nodes":[
		{
			"mesh":0,
			"name":"Plane",
			"scale":[
				2,
				1,
				2
			]
		}
	],
	"materials":[
		{
			"doubleSided":true,
			"name":"Material.001",
			"pbrMetallicRoughness":{
				"metallicFactor":0,
				"roughnessFactor":0.8309091329574585
			}
		}
	],
	"meshes":[
		{
			"name":"Plane",
			"primitives":[
				{
					"attributes":{
						"POSITION":0,
						"NORMAL":1,
						"TEXCOORD_0":2
					},
					"indices":3,
					"material":0
				}
			]
		}
	],
	"accessors":[
		{
			"bufferView":0,
			"componentType":5126,
			"count":2704,
			"max":[
				1,
				0,
				1
			],
			"min":[
				-1,
				0,
				-1
			],
			"type":"VEC3"
		},
		{
			"bufferView":1,
			"componentType":5126,
			"count":2704,
			"type":"VEC3"
		},
		{
			"bufferView":2,
			"componentType":5126,
			"count":2704,
			"type":"VEC2"
		},
		{
			"bufferView":3,
			"componentType":5123,
			"count":15606,
			"type":"SCALAR"
		}
	],
	"bufferViews":[
		{
			"buffer":0,
			"byteLength":32448,
			"byteOffset":0,
			"target":34962
		},
		{
			"buffer":0,
			"byteLength":32448,
			"byteOffset":32448,
			"target":34962
		},
		{
			"buffer":0,
			"byteLength":21632,
			"byteOffset":64896,
			"target":34962
		},
		{
			"buffer":0,
			"byteLength":31212,
			"byteOffset":86528,
			"target":34963
		}
	],
	"buffers":[
		{
			"byteLength":117740,
			"uri":"flooormoon.bin"
		}
	]
}
