{
	"asset":{
		"generator":"Khronos glTF Blender I/O v5.1.19",
		"version":"2.0"
	},
	"scene":0,
	"scenes":[
		{
			"name":"Scene",
			"nodes":[
				0
			]
		}
	],
	"nodes":[
		{
			"mesh":0,
			"name":"Cube.004",
			"scale":[
				0.390115886926651,
				0.390115886926651,
				0.390115886926651
			],
			"translation":[
				0.7549116015434265,
				0.3364129066467285,
				0.6834403276443481
			]
		}
	],
	"materials":[
		{
			"doubleSided":true,
			"name":"Material.002",
			"pbrMetallicRoughness":{
				"baseColorTexture":{
					"index":0
				},
				"metallicFactor":0,
				"roughnessFactor":0.21859297156333923
			}
		},
		{
			"doubleSided":true,
			"name":"Material",
			"pbrMetallicRoughness":{
				"baseColorTexture":{
					"index":1
				},
				"metallicFactor":0,
				"roughnessFactor":0.927135705947876
			}
		},
		{
			"doubleSided":true,
			"name":"Material.003",
			"pbrMetallicRoughness":{
				"baseColorFactor":[
					0.12331530451774597,
					0.12331530451774597,
					0.12331530451774597,
					1
				],
				"metallicFactor":0,
				"roughnessFactor":0.5
			}
		}
	],
	"meshes":[
		{
			"name":"Cube.004",
			"primitives":[
				{
					"attributes":{
						"POSITION":0,
						"NORMAL":1,
						"TEXCOORD_0":2
					},
					"indices":3,
					"material":0
				},
				{
					"attributes":{
						"POSITION":4,
						"NORMAL":5,
						"TEXCOORD_0":6
					},
					"indices":7,
					"material":1
				},
				{
					"attributes":{
						"POSITION":8,
						"NORMAL":9,
						"TEXCOORD_0":10
					},
					"indices":11,
					"material":2
				}
			]
		}
	],
	"textures":[
		{
			"sampler":0,
			"source":0
		},
		{
			"sampler":0,
			"source":1
		}
	],
	"images":[
		{
			"mimeType":"image/png",
			"name":"Untitled",
			"uri":"sss/Untitled.png"
		},
		{
			"mimeType":"image/png",
			"name":"Untitled",
			"uri":"sss/Untitled-1.png"
		}
	],
	"accessors":[
		{
			"bufferView":0,
			"componentType":5126,
			"count":250,
			"max":[
				0.8395062685012817,
				0.8395062685012817,
				0.8395062685012817
			],
			"min":[
				-0.8395062685012817,
				-0.8395062685012817,
				-4.343288421630859
			],
			"type":"VEC3"
		},
		{
			"bufferView":1,
			"componentType":5126,
			"count":250,
			"type":"VEC3"
		},
		{
			"bufferView":2,
			"componentType":5126,
			"count":250,
			"type":"VEC2"
		},
		{
			"bufferView":3,
			"componentType":5123,
			"count":1152,
			"type":"SCALAR"
		},
		{
			"bufferView":4,
			"componentType":5126,
			"count":7363,
			"max":[
				5.729162693023682,
				2.012361526489258,
				2.90384578704834
			],
			"min":[
				-7.2031569480896,
				-9.401182174682617,
				-5.730959892272949
			],
			"type":"VEC3"
		},
		{
			"bufferView":5,
			"componentType":5126,
			"count":7363,
			"type":"VEC3"
		},
		{
			"bufferView":6,
			"componentType":5126,
			"count":7363,
			"type":"VEC2"
		},
		{
			"bufferView":7,
			"componentType":5123,
			"count":42624,
			"type":"SCALAR"
		},
		{
			"bufferView":8,
			"componentType":5126,
			"count":794,
			"max":[
				-1.6102768182754517,
				3.996757984161377,
				0.9230144619941711
			],
			"min":[
				-3.7909460067749023,
				1.1262723207473755,
				-4.426796913146973
			],
			"type":"VEC3"
		},
		{
			"bufferView":9,
			"componentType":5126,
			"count":794,
			"type":"VEC3"
		},
		{
			"bufferView":10,
			"componentType":5126,
			"count":794,
			"type":"VEC2"
		},
		{
			"bufferView":11,
			"componentType":5123,
			"count":4224,
			"type":"SCALAR"
		}
	],
	"bufferViews":[
		{
			"buffer":0,
			"byteLength":3000,
			"byteOffset":0,
			"target":34962
		},
		{
			"buffer":0,
			"byteLength":3000,
			"byteOffset":3000,
			"target":34962
		},
		{
			"buffer":0,
			"byteLength":2000,
			"byteOffset":6000,
			"target":34962
		},
		{
			"buffer":0,
			"byteLength":2304,
			"byteOffset":8000,
			"target":34963
		},
		{
			"buffer":0,
			"byteLength":88356,
			"byteOffset":10304,
			"target":34962
		},
		{
			"buffer":0,
			"byteLength":88356,
			"byteOffset":98660,
			"target":34962
		},
		{
			"buffer":0,
			"byteLength":58904,
			"byteOffset":187016,
			"target":34962
		},
		{
			"buffer":0,
			"byteLength":85248,
			"byteOffset":245920,
			"target":34963
		},
		{
			"buffer":0,
			"byteLength":9528,
			"byteOffset":331168,
			"target":34962
		},
		{
			"buffer":0,
			"byteLength":9528,
			"byteOffset":340696,
			"target":34962
		},
		{
			"buffer":0,
			"byteLength":6352,
			"byteOffset":350224,
			"target":34962
		},
		{
			"buffer":0,
			"byteLength":8448,
			"byteOffset":356576,
			"target":34963
		}
	],
	"samplers":[
		{
			"magFilter":9729,
			"minFilter":9987
		}
	],
	"buffers":[
		{
			"byteLength":365024,
			"uri":"goat.bin"
		}
	]
}
