{
	"asset":{
		"generator":"Khronos glTF Blender I/O v5.1.20",
		"version":"2.0"
	},
	"scene":0,
	"scenes":[
		{
			"name":"Scene",
			"nodes":[
				0
			]
		}
	],
	"nodes":[
		{
			"mesh":0,
			"name":"Cube"
		}
	],
	"materials":[
		{
			"doubleSided":true,
			"name":"Material",
			"pbrMetallicRoughness":{
				"baseColorTexture":{
					"index":0
				},
				"metallicFactor":0,
				"roughnessFactor":0.914893627166748
			}
		}
	],
	"meshes":[
		{
			"name":"Cube",
			"primitives":[
				{
					"attributes":{
						"POSITION":0,
						"NORMAL":1,
						"TEXCOORD_0":2,
						"COLOR_0":3,
						"COLOR_1":4
					},
					"indices":5,
					"material":0
				}
			]
		}
	],
	"textures":[
		{
			"sampler":0,
			"source":0
		}
	],
	"images":[
		{
			"mimeType":"image/png",
			"name":"Untitled",
			"uri":"11/Untitled.png"
		}
	],
	"accessors":[
		{
			"bufferView":0,
			"componentType":5126,
			"count":12738,
			"max":[
				0.9285688400268555,
				0.7954497933387756,
				0.9285545349121094
			],
			"min":[
				-0.9285498857498169,
				-0.7659483551979065,
				-0.9285638928413391
			],
			"type":"VEC3"
		},
		{
			"bufferView":1,
			"componentType":5126,
			"count":12738,
			"type":"VEC3"
		},
		{
			"bufferView":2,
			"componentType":5126,
			"count":12738,
			"type":"VEC2"
		},
		{
			"bufferView":3,
			"componentType":5121,
			"count":12738,
			"normalized":true,
			"type":"VEC4"
		},
		{
			"bufferView":4,
			"componentType":5123,
			"count":12738,
			"normalized":true,
			"type":"VEC4"
		},
		{
			"bufferView":5,
			"componentType":5123,
			"count":76032,
			"type":"SCALAR"
		}
	],
	"bufferViews":[
		{
			"buffer":0,
			"byteLength":152856,
			"byteOffset":0,
			"target":34962
		},
		{
			"buffer":0,
			"byteLength":152856,
			"byteOffset":152856,
			"target":34962
		},
		{
			"buffer":0,
			"byteLength":101904,
			"byteOffset":305712,
			"target":34962
		},
		{
			"buffer":0,
			"byteLength":50952,
			"byteOffset":407616,
			"target":34962
		},
		{
			"buffer":0,
			"byteLength":101904,
			"byteOffset":458568,
			"target":34962
		},
		{
			"buffer":0,
			"byteLength":152064,
			"byteOffset":560472,
			"target":34963
		}
	],
	"samplers":[
		{
			"magFilter":9729,
			"minFilter":9987
		}
	],
	"buffers":[
		{
			"byteLength":712536,
			"uri":"popo2.bin"
		}
	]
}
