{
	"asset":{
		"generator":"Khronos glTF Blender I/O v5.1.20",
		"version":"2.0"
	},
	"scene":0,
	"scenes":[
		{
			"name":"Scene",
			"nodes":[
				0,
				1
			]
		}
	],
	"nodes":[
		{
			"mesh":0,
			"name":"B\u00e9zierCurve",
			"translation":[
				1.520145058631897,
				1.064441442489624,
				0.03547891974449158
			]
		},
		{
			"mesh":1,
			"name":"Plane",
			"rotation":[
				0,
				0,
				-0.7071068286895752,
				0.7071068286895752
			],
			"scale":[
				0.36498570442199707,
				1,
				0.8264531493186951
			],
			"translation":[
				0.8800001740455627,
				1.9134708642959595,
				-0.023523706942796707
			]
		}
	],
	"materials":[
		{
			"doubleSided":true,
			"name":"Material.001",
			"pbrMetallicRoughness":{
				"baseColorTexture":{
					"index":0
				},
				"metallicFactor":0.2946428656578064,
				"roughnessFactor":0.375
			}
		},
		{
			"doubleSided":true,
			"name":"Material.003",
			"pbrMetallicRoughness":{
				"baseColorTexture":{
					"index":1
				},
				"metallicRoughnessTexture":{
					"index":2
				},
				"roughnessFactor":0.9196430444717407
			}
		},
		{
			"doubleSided":true,
			"name":"Material.002",
			"pbrMetallicRoughness":{
				"metallicFactor":0,
				"roughnessFactor":0.8571428656578064
			}
		}
	],
	"meshes":[
		{
			"name":"B\u00e9zierCurve",
			"primitives":[
				{
					"attributes":{
						"POSITION":0,
						"NORMAL":1,
						"TEXCOORD_0":2
					},
					"indices":3,
					"material":0
				},
				{
					"attributes":{
						"POSITION":4,
						"NORMAL":5,
						"TEXCOORD_0":6
					},
					"indices":7,
					"material":1
				}
			]
		},
		{
			"name":"Plane",
			"primitives":[
				{
					"attributes":{
						"POSITION":8,
						"NORMAL":9,
						"TEXCOORD_0":10
					},
					"indices":11,
					"material":2
				}
			]
		}
	],
	"textures":[
		{
			"sampler":0,
			"source":0
		},
		{
			"sampler":0,
			"source":1
		},
		{
			"sampler":0,
			"source":0
		}
	],
	"images":[
		{
			"mimeType":"image/png",
			"name":"finish.png",
			"uri":"finish.png"
		},
		{
			"mimeType":"image/png",
			"name":"finish.png.001",
			"uri":"finish.png"
		}
	],
	"accessors":[
		{
			"bufferView":0,
			"componentType":5126,
			"count":4051,
			"max":[
				0.4384365379810333,
				1.9445831775665283,
				0.8634419441223145
			],
			"min":[
				-2.5910654067993164,
				-2.2452731132507324,
				-0.9516912698745728
			],
			"type":"VEC3"
		},
		{
			"bufferView":1,
			"componentType":5126,
			"count":4051,
			"type":"VEC3"
		},
		{
			"bufferView":2,
			"componentType":5126,
			"count":4051,
			"type":"VEC2"
		},
		{
			"bufferView":3,
			"componentType":5123,
			"count":18576,
			"type":"SCALAR"
		},
		{
			"bufferView":4,
			"componentType":5126,
			"count":10,
			"max":[
				0.058708906173706055,
				1.8266942501068115,
				0.8008040189743042
			],
			"min":[
				0.058708906173706055,
				1.328540563583374,
				-0.9316028356552124
			],
			"type":"VEC3"
		},
		{
			"bufferView":5,
			"componentType":5126,
			"count":10,
			"type":"VEC3"
		},
		{
			"bufferView":6,
			"componentType":5126,
			"count":10,
			"type":"VEC2"
		},
		{
			"bufferView":7,
			"componentType":5123,
			"count":24,
			"type":"SCALAR"
		},
		{
			"bufferView":8,
			"componentType":5126,
			"count":4,
			"max":[
				1,
				0,
				1
			],
			"min":[
				-1,
				0,
				-1
			],
			"type":"VEC3"
		},
		{
			"bufferView":9,
			"componentType":5126,
			"count":4,
			"type":"VEC3"
		},
		{
			"bufferView":10,
			"componentType":5126,
			"count":4,
			"type":"VEC2"
		},
		{
			"bufferView":11,
			"componentType":5123,
			"count":6,
			"type":"SCALAR"
		}
	],
	"bufferViews":[
		{
			"buffer":0,
			"byteLength":48612,
			"byteOffset":0,
			"target":34962
		},
		{
			"buffer":0,
			"byteLength":48612,
			"byteOffset":48612,
			"target":34962
		},
		{
			"buffer":0,
			"byteLength":32408,
			"byteOffset":97224,
			"target":34962
		},
		{
			"buffer":0,
			"byteLength":37152,
			"byteOffset":129632,
			"target":34963
		},
		{
			"buffer":0,
			"byteLength":120,
			"byteOffset":166784,
			"target":34962
		},
		{
			"buffer":0,
			"byteLength":120,
			"byteOffset":166904,
			"target":34962
		},
		{
			"buffer":0,
			"byteLength":80,
			"byteOffset":167024,
			"target":34962
		},
		{
			"buffer":0,
			"byteLength":48,
			"byteOffset":167104,
			"target":34963
		},
		{
			"buffer":0,
			"byteLength":48,
			"byteOffset":167152,
			"target":34962
		},
		{
			"buffer":0,
			"byteLength":48,
			"byteOffset":167200,
			"target":34962
		},
		{
			"buffer":0,
			"byteLength":32,
			"byteOffset":167248,
			"target":34962
		},
		{
			"buffer":0,
			"byteLength":12,
			"byteOffset":167280,
			"target":34963
		}
	],
	"samplers":[
		{
			"magFilter":9729,
			"minFilter":9987
		}
	],
	"buffers":[
		{
			"byteLength":167292,
			"uri":"toiyzzl.bin"
		}
	]
}
