{
	"asset":{
		"generator":"Khronos glTF Blender I/O v5.1.20",
		"version":"2.0"
	},
	"scene":0,
	"scenes":[
		{
			"name":"Scene",
			"nodes":[
				0,
				1,
				2,
				3,
				4,
				5
			]
		}
	],
	"nodes":[
		{
			"mesh":0,
			"name":"Cube",
			"scale":[
				1,
				1,
				0.9086337685585022
			]
		},
		{
			"mesh":1,
			"name":"Circle",
			"scale":[
				0.9719241857528687,
				1,
				0.880283534526825
			],
			"translation":[
				-0.09780604392290115,
				1.0496094226837158,
				0
			]
		},
		{
			"mesh":2,
			"name":"Circle.001",
			"rotation":[
				0,
				0,
				-0.08195961266756058,
				0.9966356754302979
			],
			"scale":[
				0.9719241857528687,
				1,
				0.880283534526825
			],
			"translation":[
				0.8268944621086121,
				1.1769481897354126,
				-0.029920492321252823
			]
		},
		{
			"mesh":3,
			"name":"Cube.003",
			"scale":[
				0.31784510612487793,
				0.6472129821777344,
				0.8862918615341187
			],
			"translation":[
				1.202299952507019,
				1.7116544246673584,
				-0.029920488595962524
			]
		},
		{
			"mesh":4,
			"name":"B\u00e9zierCurve",
			"translation":[
				1.520145058631897,
				1.064441442489624,
				0.03547891974449158
			]
		},
		{
			"mesh":5,
			"name":"B\u00e9zierCurve.001",
			"rotation":[
				0.32394084334373474,
				0.05234520882368088,
				-0.12009650468826294,
				0.9369627237319946
			],
			"translation":[
				1.520145058631897,
				1.064441442489624,
				0.012852326035499573
			]
		}
	],
	"materials":[
		{
			"doubleSided":true,
			"name":"Material",
			"pbrMetallicRoughness":{
				"baseColorFactor":[
					0.800000011920929,
					0.800000011920929,
					0.800000011920929,
					1
				],
				"metallicFactor":0,
				"roughnessFactor":0.5
			}
		}
	],
	"meshes":[
		{
			"name":"Cube",
			"primitives":[
				{
					"attributes":{
						"POSITION":0,
						"NORMAL":1,
						"TEXCOORD_0":2
					},
					"indices":3,
					"material":0
				}
			]
		},
		{
			"name":"Circle",
			"primitives":[
				{
					"attributes":{
						"POSITION":4,
						"NORMAL":5,
						"TEXCOORD_0":6
					},
					"indices":7
				}
			]
		},
		{
			"name":"Circle.001",
			"primitives":[
				{
					"attributes":{
						"POSITION":8,
						"NORMAL":9,
						"TEXCOORD_0":10
					},
					"indices":11
				}
			]
		},
		{
			"name":"Cube.003",
			"primitives":[
				{
					"attributes":{
						"POSITION":12,
						"NORMAL":13,
						"TEXCOORD_0":14
					},
					"indices":15
				}
			]
		},
		{
			"name":"B\u00e9zierCurve",
			"primitives":[
				{
					"attributes":{
						"POSITION":16,
						"NORMAL":17,
						"TEXCOORD_0":18
					},
					"indices":19
				}
			]
		},
		{
			"name":"B\u00e9zierCurve.001",
			"primitives":[
				{
					"attributes":{
						"POSITION":20,
						"NORMAL":21,
						"TEXCOORD_0":22
					},
					"indices":19
				}
			]
		}
	],
	"accessors":[
		{
			"bufferView":0,
			"componentType":5126,
			"count":46,
			"max":[
				1.009189248085022,
				1.043058156967163,
				1.0918694734573364
			],
			"min":[
				-1.1745496988296509,
				-1.1847432851791382,
				-1.0918694734573364
			],
			"type":"VEC3"
		},
		{
			"bufferView":1,
			"componentType":5126,
			"count":46,
			"type":"VEC3"
		},
		{
			"bufferView":2,
			"componentType":5126,
			"count":46,
			"type":"VEC2"
		},
		{
			"bufferView":3,
			"componentType":5123,
			"count":228,
			"type":"SCALAR"
		},
		{
			"bufferView":4,
			"componentType":5126,
			"count":128,
			"max":[
				0.9615235328674316,
				0.09835964441299438,
				0.9482753872871399
			],
			"min":[
				-0.9054529070854187,
				-0.0077787707559764385,
				-0.9475337862968445
			],
			"type":"VEC3"
		},
		{
			"bufferView":5,
			"componentType":5126,
			"count":128,
			"type":"VEC3"
		},
		{
			"bufferView":6,
			"componentType":5126,
			"count":128,
			"type":"VEC2"
		},
		{
			"bufferView":7,
			"componentType":5123,
			"count":768,
			"type":"SCALAR"
		},
		{
			"bufferView":8,
			"componentType":5126,
			"count":130,
			"max":[
				0.009838640689849854,
				0.05276888608932495,
				0.9505468606948853
			],
			"min":[
				-1.8571377992630005,
				-0.05239028111100197,
				-0.9452623128890991
			],
			"type":"VEC3"
		},
		{
			"bufferView":9,
			"componentType":5126,
			"count":130,
			"type":"VEC3"
		},
		{
			"bufferView":10,
			"componentType":5126,
			"count":130,
			"type":"VEC2"
		},
		{
			"bufferView":11,
			"componentType":5123,
			"count":768,
			"type":"SCALAR"
		},
		{
			"bufferView":12,
			"componentType":5126,
			"count":150,
			"max":[
				1.1847091913223267,
				2.004549264907837,
				1
			],
			"min":[
				-1.1847091913223267,
				-1,
				-1
			],
			"type":"VEC3"
		},
		{
			"bufferView":13,
			"componentType":5126,
			"count":150,
			"type":"VEC3"
		},
		{
			"bufferView":14,
			"componentType":5126,
			"count":150,
			"type":"VEC2"
		},
		{
			"bufferView":15,
			"componentType":5123,
			"count":744,
			"type":"SCALAR"
		},
		{
			"bufferView":16,
			"componentType":5126,
			"count":143,
			"max":[
				0.2483343482017517,
				0.4335889220237732,
				0.1001804918050766
			],
			"min":[
				-0.6875740885734558,
				-0.318589448928833,
				-0.05771692842245102
			],
			"type":"VEC3"
		},
		{
			"bufferView":17,
			"componentType":5126,
			"count":143,
			"type":"VEC3"
		},
		{
			"bufferView":18,
			"componentType":5126,
			"count":143,
			"type":"VEC2"
		},
		{
			"bufferView":19,
			"componentType":5123,
			"count":720,
			"type":"SCALAR"
		},
		{
			"bufferView":20,
			"componentType":5126,
			"count":143,
			"max":[
				0.47483736276626587,
				0.4335888922214508,
				0.04999388009309769
			],
			"min":[
				-0.7210310697555542,
				-0.4739551544189453,
				-0.2555130422115326
			],
			"type":"VEC3"
		},
		{
			"bufferView":21,
			"componentType":5126,
			"count":143,
			"type":"VEC3"
		},
		{
			"bufferView":22,
			"componentType":5126,
			"count":143,
			"type":"VEC2"
		}
	],
	"bufferViews":[
		{
			"buffer":0,
			"byteLength":552,
			"byteOffset":0,
			"target":34962
		},
		{
			"buffer":0,
			"byteLength":552,
			"byteOffset":552,
			"target":34962
		},
		{
			"buffer":0,
			"byteLength":368,
			"byteOffset":1104,
			"target":34962
		},
		{
			"buffer":0,
			"byteLength":456,
			"byteOffset":1472,
			"target":34963
		},
		{
			"buffer":0,
			"byteLength":1536,
			"byteOffset":1928,
			"target":34962
		},
		{
			"buffer":0,
			"byteLength":1536,
			"byteOffset":3464,
			"target":34962
		},
		{
			"buffer":0,
			"byteLength":1024,
			"byteOffset":5000,
			"target":34962
		},
		{
			"buffer":0,
			"byteLength":1536,
			"byteOffset":6024,
			"target":34963
		},
		{
			"buffer":0,
			"byteLength":1560,
			"byteOffset":7560,
			"target":34962
		},
		{
			"buffer":0,
			"byteLength":1560,
			"byteOffset":9120,
			"target":34962
		},
		{
			"buffer":0,
			"byteLength":1040,
			"byteOffset":10680,
			"target":34962
		},
		{
			"buffer":0,
			"byteLength":1536,
			"byteOffset":11720,
			"target":34963
		},
		{
			"buffer":0,
			"byteLength":1800,
			"byteOffset":13256,
			"target":34962
		},
		{
			"buffer":0,
			"byteLength":1800,
			"byteOffset":15056,
			"target":34962
		},
		{
			"buffer":0,
			"byteLength":1200,
			"byteOffset":16856,
			"target":34962
		},
		{
			"buffer":0,
			"byteLength":1488,
			"byteOffset":18056,
			"target":34963
		},
		{
			"buffer":0,
			"byteLength":1716,
			"byteOffset":19544,
			"target":34962
		},
		{
			"buffer":0,
			"byteLength":1716,
			"byteOffset":21260,
			"target":34962
		},
		{
			"buffer":0,
			"byteLength":1144,
			"byteOffset":22976,
			"target":34962
		},
		{
			"buffer":0,
			"byteLength":1440,
			"byteOffset":24120,
			"target":34963
		},
		{
			"buffer":0,
			"byteLength":1716,
			"byteOffset":25560,
			"target":34962
		},
		{
			"buffer":0,
			"byteLength":1716,
			"byteOffset":27276,
			"target":34962
		},
		{
			"buffer":0,
			"byteLength":1144,
			"byteOffset":28992,
			"target":34962
		}
	],
	"buffers":[
		{
			"byteLength":30136,
			"uri":"toiyl.bin"
		}
	]
}
